<?xml version="1.0" encoding="UTF-8" standalone="no"?>
<!-- Created with Inkscape (http://www.inkscape.org/) -->

<svg
  xmlns:dc="http://purl.org/dc/elements/1.1/"
  xmlns:cc="http://creativecommons.org/ns#"
  xmlns:rdf="http://www.w3.org/1999/02/22-rdf-syntax-ns#"
  xmlns:svg="http://www.w3.org/2000/svg"
  xmlns="http://www.w3.org/2000/svg"
  xmlns:xlink="http://www.w3.org/1999/xlink"
  xmlns:sodipodi="http://sodipodi.sourceforge.net/DTD/sodipodi-0.dtd"
  xmlns:inkscape="http://www.inkscape.org/namespaces/inkscape"
  version="1.0"
  width="420"
  height="236.42999"
  id="svg2"
  inkscape:version="0.47 r22583"
  sodipodi:docname="Chlorine_dioxide.svg">
 <metadata
   id="metadata8">
  <rdf:RDF>
   <cc:Work
     rdf:about="">
    <dc:format>image/svg+xml</dc:format>
    <dc:type
      rdf:resource="http://purl.org/dc/dcmitype/StillImage" />
    <dc:title></dc:title>
   </cc:Work>
  </rdf:RDF>
 </metadata>
 <sodipodi:namedview
   pagecolor="#ffffff"
   bordercolor="#666666"
   borderopacity="1"
   objecttolerance="10"
   gridtolerance="10"
   guidetolerance="10"
   inkscape:pageopacity="0"
   inkscape:pageshadow="2"
   inkscape:window-width="640"
   inkscape:window-height="495"
   id="namedview6"
   showgrid="false"
   inkscape:zoom="0.4658"
   inkscape:cx="247.7"
   inkscape:cy="125.9"
   inkscape:window-x="492"
   inkscape:window-y="80"
   inkscape:window-maximized="0"
   inkscape:current-layer="svg2" />
 <defs
   id="defs4">
  <inkscape:perspective
    sodipodi:type="inkscape:persp3d"
    inkscape:vp_x="0 : 118.2 : 1"
    inkscape:vp_y="0 : 1000 : 0"
    inkscape:vp_z="420 : 118.2 : 1"
    inkscape:persp3d-origin="210 : 78.81 : 1"
    id="perspective10" />
 </defs>
 <rect
   style="fill:#000000;fill-opacity:1;fill-rule:nonzero;stroke:none"
   id="rect3651"
   width="7.615"
   height="69.07"
   x="3.383"
   y="134.6" />
 <use
   x="0"
   y="0"
   xlink:href="#rect3651"
   id="use3655"
   transform="translate(406,-3.783)"
   width="420"
   height="236.4" />
 <use
   x="0"
   y="0"
   xlink:href="#rect3651"
   id="use3659"
   transform="matrix(0,1,-1,0,229.6,214.9)"
   width="420"
   height="236.4" />
 <use
   x="0"
   y="0"
   xlink:href="#rect3651"
   id="use3661"
   transform="matrix(0.4884,0.8726,-0.8726,0.4884,266.6,29.56)"
   width="420"
   height="236.4" />
 <use
   x="0"
   y="0"
   xlink:href="#use3661"
   id="use3663"
   transform="translate(11.35,22.32)"
   width="420"
   height="236.4" />
 <use
   x="0"
   y="0"
   xlink:href="#use3663"
   id="use3665"
   transform="matrix(-1,0,0,1,420.5,1.135)"
   width="420"
   height="236.4" />
 <use
   x="0"
   y="0"
   xlink:href="#use3661"
   id="use3667"
   transform="matrix(-1,0,0,1,372.3,-88.91)"
   width="420"
   height="236.4" />
 <path
   sodipodi:type="arc"
   style="fill:#000000;fill-opacity:1;fill-rule:nonzero;stroke:none"
   id="path3669"
   sodipodi:cx="165.3"
   sodipodi:cy="27.21"
   sodipodi:rx="7.945"
   sodipodi:ry="7.945"
   d="m 173.2,27.21 a 7.945,7.945 0 1 1 -15.8,0 7.945,7.945 0 1 1 15.8,0 z"
   transform="translate(-6.537,0)" />
 <text
   xml:space="preserve"
   style="font-size:100px;font-style:normal;font-variant:normal;font-weight:normal;font-stretch:normal;text-align:start;line-height:100%;writing-mode:lr-tb;text-anchor:start;fill:#000000;fill-opacity:1;stroke:none;font-family:Nimbus Sans L;-inkscape-font-specification:Nimbus Sans L"
   x="21.295256"
   y="205.66147"
   id="text3671"
   sodipodi:linespacing="100%"><tspan
    sodipodi:role="line"
    id="tspan3673"
    x="21.295256"
    y="205.66147">O</tspan></text>
 <text
   xml:space="preserve"
   style="font-size:18px;font-style:normal;font-variant:normal;font-weight:normal;font-stretch:normal;text-align:start;line-height:100%;writing-mode:lr-tb;text-anchor:start;fill:#ffffff;fill-opacity:1;stroke:none;font-family:Nimbus Sans L;-inkscape-font-specification:Nimbus Sans L"
   x="158.5428"
   y="121.77952"
   id="text3675"
   sodipodi:linespacing="100%"><tspan
    sodipodi:role="line"
    id="tspan3677"
    x="158.5428"
    y="121.77952"
    style="font-size:100px;-inkscape-font-specification:Nimbus Sans L;font-family:Nimbus Sans L;font-weight:normal;font-style:normal;font-stretch:normal;font-variant:normal;fill:#ffffff;fill-opacity:1">Cl</tspan></text>
 <use
   x="0"
   y="0"
   xlink:href="#text3671"
   id="use3679"
   transform="translate(302,0)"
   width="420"
   height="236.4" />
 <use
   x="0"
   y="0"
   xlink:href="#use3659"
   id="use3687"
   width="420"
   height="236.4"
   transform="translate(302,0)" />
 <use
   x="0"
   y="0"
   xlink:href="#use3665"
   id="use3689"
   transform="translate(12,-22)"
   width="420"
   height="236.4" />
 <g
   style="font-size:18px;font-style:normal;font-variant:normal;font-weight:normal;font-stretch:normal;text-align:start;line-height:100%;writing-mode:lr-tb;text-anchor:start;fill:#000000;fill-opacity:1;stroke:none;font-family:Nimbus Sans L;-inkscape-font-specification:Nimbus Sans L"
   id="text3695">
  <path
    d="m 224.7,71.48 c -2.9,-16 -12.1,-23.8 -28.1,-23.8 -9.8,0 -17.7,3.1 -23.1,9.1 -6.6,7.2 -10.2,17.6 -10.2,29.4 0,12 3.7,22.32 10.6,29.42 5.6,5.8 12.8,8.5 22.3,8.5 17.8,0 27.8,-9.6 30,-28.92 l -9.6,0 c -0.8,5.02 -1.8,8.42 -3.3,11.32 -3,6 -9.2,9.4 -17,9.4 -14.5,0 -23.7,-11.6 -23.7,-29.82 0,-18.7 8.8,-30.2 22.9,-30.2 5.9,0 11.4,1.8 14.4,4.6 2.7,2.5 4.2,5.6 5.3,11 l 9.5,0"
    style="font-size:100px;font-family:Nimbus Sans L;-inkscape-font-specification:Nimbus Sans L"
    id="path3700" />
  <path
    d="m 244.1,48.88 -8.4,0 0,62.42 c 0.1,10.2 5.8,10.6 15.6,10.5 l 0,-8.3 c -5.7,-0.2 -7.2,1.6 -7.2,-6.5"
    style="font-size:100px;font-family:Nimbus Sans L;-inkscape-font-specification:Nimbus Sans L"
    id="path3702"
    sodipodi:nodetypes="cccccc" />
 </g>
</svg>
